<?xml version="1.0" standalone="no"?>
<!DOCTYPE svg PUBLIC "-//W3C//DTD SVG 1.1//EN" "http://www.w3.org/Graphics/SVG/1.1/DTD/svg11.dtd" >
<svg xmlns="http://www.w3.org/2000/svg">
<metadata>Generated by IcoMoon</metadata>
<defs>
<font id="iconre" horiz-adv-x="1024">
<font-face units-per-em="1024" ascent="960" descent="-64" />
<missing-glyph horiz-adv-x="1024" />
<glyph unicode="&#x20;" horiz-adv-x="512" d="" />
<glyph unicode="&#xe900;" glyph-name="arrow" horiz-adv-x="626" d="M68.178 55.922l386.844 398.221-386.844 398.222c-17.067 17.067-17.067 51.2 0 68.267s45.511 17.067 62.578 0l426.667-432.356c17.064-17.067 17.064-51.2 0-68.267l-420.978-432.354c-17.067-17.067-45.511-17.067-62.578 0-22.756 17.067-22.756 45.511-5.689 68.267z" />
<glyph unicode="&#xe901;" glyph-name="basket" horiz-adv-x="1122" d="M560.762 960l-356.725-366.167h-204.037v-246.687h50.068l111.391-381.586 8.772-29.559h781.060l8.772 29.559 111.392 381.586h50.069v246.687h-204.039l-356.723 366.167zM560.762 843.070l242.849-249.237h-485.659l242.81 249.237zM80.109 511.604h961.304v-82.231h-30.037l-8.772-29.559-111.392-381.586h-660.899l-111.391 381.586-8.772 29.559h-30.041v82.231zM360.49 388.262v-287.803h80.108v287.803h-80.108zM520.709 388.262v-287.803h80.106v287.803h-80.106zM680.926 388.262v-287.803h80.106v287.803h-80.106z" />
<glyph unicode="&#xe902;" glyph-name="beer" horiz-adv-x="1088" d="M998.643 765.894c-48.179 70.637-113.35 109.542-183.501 109.542-5.472 0-10.976-0.275-16.454-0.763-13.235 49.102-57.798 85.327-110.618 85.327h-500.115c-78.438 0.002-142.252-64.358-142.252-143.468v-402.712c0-60.143 46.886-109.443 105.728-112.681v-187.885c0-4.115-3.332-7.456-7.426-7.456-37.178 0-67.426-30.515-67.426-68.019v-33.76c0-37.504 30.248-68.019 67.426-68.019h604.987c37.178 0 67.424 30.515 67.424 68.019v33.76c0 37.504-30.246 68.019-67.424 68.019-4.096 0-7.43 3.341-7.43 7.456v58.208c23.706-9.99 48.352-15.066 73.587-15.066 70.15 0 135.315 38.906 183.494 109.542 45.824 67.183 71.059 155.962 71.059 249.977s-25.235 182.791-71.059 249.978zM105.703 413.82v402.712c0 45.714 36.898 82.902 82.252 82.902h500.122c30.125 0 54.637-24.7 54.637-55.057 0-20.353-16.435-36.91-36.64-36.91h-26.035c-51.068 0-92.617-41.91-92.617-93.423v-9.723c0-12.755-10.307-23.132-22.974-23.132-54.902 0-99.568-45.052-99.568-100.431v-40.562c0-24.919-20.122-45.193-44.852-45.193-24.732 0-44.854 20.272-44.854 45.191v57.434c0 46.076-37.16 83.561-82.836 83.561s-82.836-37.484-82.836-83.561v-183.807c0-28.834-23.283-52.294-51.898-52.294s-51.9 23.458-51.9 52.292zM748.992 45.229c4.090 0 7.424-3.341 7.424-7.456v-33.754c0-4.109-3.334-7.456-7.424-7.456h-604.989c-4.094 0-7.426 3.347-7.426 7.456v33.754c0 4.115 3.332 7.456 7.426 7.456 37.178 0 67.426 30.515 67.426 68.019v200.826c0 0.275-0.034 0.538-0.040 0.813 34.604 19.217 58.108 56.355 58.108 98.934v183.807c0 12.677 10.244 22.993 22.836 22.993s22.836-10.314 22.836-22.993v-57.434c0-58.316 47.038-105.758 104.854-105.758s104.852 47.444 104.852 105.76v40.562c0 21.982 17.75 39.863 39.568 39.863 45.752 0 82.975 37.548 82.975 83.7v9.723c0 18.118 14.63 32.856 32.621 32.856h1.523v-633.644c0-37.51 30.246-68.026 67.43-68.026zM741.562 567.114c0 58.277 41.76 103.149 73.581 103.149 36.704 0 77.594-63.388 77.594-154.347s-40.89-154.348-77.594-154.348c-37.568 0-73.581 46.833-73.581 97.128-0.435 2.043 0 57.866 0 108.417zM949.222 300.282c-36.646-53.728-84.262-83.322-134.074-83.322-23.821 0-47.149 6.714-69.331 19.949-1.382 0.826-2.81 1.485-4.256 2.061v94.078c21.293-20.568 46.509-32.049 73.587-32.049 77.152 0 137.587 94.403 137.587 214.916s-60.435 214.914-137.587 214.914c-27.059 0-52.269-11.391-73.587-31.996v54.902c26.432 10.567 47.168 32.557 56.205 59.911 5.747 0.8 11.584 1.22 17.382 1.22 49.811 0 97.427-29.591 134.074-83.322 39.002-57.178 60.48-133.757 60.48-215.627s-21.478-158.45-60.48-215.635z" />
<glyph unicode="&#xe903;" glyph-name="dairy_products" horiz-adv-x="1088" d="M888.998 417.882v251.507l-120.474 150.588v140.023h-602.351v-140.023l-120.47-150.588v-733.389h884.793c60.154 0 109.088 48.941 109.088 109.094v372.788h-150.586zM979.347 297.414h-180.704v60.232h180.704v-60.232zM828.762 417.882h-90.355v-372.788c0-17.562 4.198-34.15 11.597-48.858h-101.946v652.021l90.349 112.941 90.355-112.941v-230.376zM603.462 688.941h-464.978l72.282 90.353h464.978l-72.282-90.353zM587.821 628.706v-481.884h-481.882v481.884h481.882zM226.409 899.765h481.885v-60.235h-481.885v60.235zM105.939 86.586h481.882v-90.349h-481.882v90.349zM930.496-3.763c-20.205 0-65.222 0-82.995 0-26.938 0-48.858 21.914-48.858 48.858v192.083h180.71v-192.083c-0.006-26.944-21.92-48.858-48.858-48.858z" />
<glyph unicode="&#xe904;" glyph-name="delete_icon" horiz-adv-x="964" d="M567.070 468.491l358.403-381.842c23.492-25.028 23.492-65.65 0-90.738-23.552-25.034-61.681-25.034-85.179 0l-358.397 381.838-358.4-381.838c-23.492-25.034-61.621-25.034-85.173 0-23.492 25.088-23.492 65.711 0 90.738l358.4 381.842-358.4 381.841c-23.492 25.028-23.492 65.651 0 90.743 23.552 25.028 61.681 25.028 85.173 0l358.4-381.84 358.397 381.84c23.498 25.028 61.627 25.028 85.179 0 23.492-25.092 23.492-65.715 0-90.743l-358.403-381.841z" />
<glyph unicode="&#xe905;" glyph-name="done_icon" horiz-adv-x="1365" d="M1282.071 890.305c-65.627 63.029-172.076 63.029-237.536 0l-519.14-537.448-204.318 278.688c-65.46 63.029-171.913 63.029-237.372 0-65.46-63.353-65.46-165.918 0-229.109l318.872-389.192c32.729-31.596 73.723-47.312 118.767-47.312 40.993 0 86.038 15.716 118.767 47.312l637.909 647.952c69.507 63.191 69.507 165.916 4.050 229.108z" />
<glyph unicode="&#xe906;" glyph-name="favorite" horiz-adv-x="1071" d="M535.273 794.697l100.366-204.068 16.724-36.572 36.366-5.486 224-32.548-159.274-157.255-27.271-26.698 6.544-36.571 38.181-224.186-200.364 105.695-35.272 14.992-33.82-17.92-200.362-104.229 36.364 224.182 6.546 36.575-26.909 28.16-160.727 159.084 260.364 38.035 16.727 36.571 101.818 202.24zM535.273 960l-165.455-337.189-369.818-53.76 267.636-262.582-63.272-370.469 330.909 174.811 330.91-174.811-63.274 370.469 267.636 262.217-369.818 54.125-165.455 337.189z" />
<glyph unicode="&#xe907;" glyph-name="fruits" horiz-adv-x="904" d="M886.308 508.041c0 97.011-82.113 175.935-183.043 175.935-44.49 0-86.474-15.209-119.39-42.539-24.087 19.916-53.605 33.917-86.098 39.647 18.296 135.002 163.058 150.402 169.503 151.013 17.161 1.52 29.798 16.126 28.22 32.625-1.584 16.498-16.77 28.647-33.949 27.123-2.307-0.206-57.193-5.366-112.348-36.613-29.181-16.532-61.527-42.179-84.596-81.094-14.969 51.66-41.521 89.721-66.104 115.881-44.643 47.506-92.542 66.9-94.558 67.702-7.99 3.176-16.996 3.028-24.868-0.416s-13.902-9.874-16.654-17.753c-0.747-2.14-18.165-53.139-5.684-117.078 9.399-48.15 37.524-111.562 114.604-163.135-9.174-5.248-17.836-11.239-25.891-17.895-32.926 27.325-74.914 42.535-119.392 42.535-100.932 0-183.045-78.923-183.045-175.935 0-73.744 47.456-137.026 114.551-163.141-12.959-46.321-5.633-95.931 21.473-138.011 24.162-37.509 61.023-64.139 103.552-76.125-5.016-43.689 7.133-87.407 35.13-123.663 34.894-45.189 88.451-71.102 146.942-71.102 100.932 0 183.042 78.926 183.042 175.935 0 6.728-0.452 13.107-1.108 18.872 45.634 12.933 84.757 42.707 108.273 83.589 23.16 40.261 28.835 87.064 16.824 130.476 67.132 26.104 114.616 89.402 114.616 163.17zM585.284 508.043c0-63.928-54.111-115.936-120.622-115.936s-120.622 52.008-120.622 115.936c0 63.928 54.111 115.937 120.622 115.937s120.622-52.011 120.622-115.937zM314.849 882.183c37.458-26.495 92.567-81.427 98.809-177.886-90.488 57.25-101.708 132.881-98.809 177.886zM105.438 508.041c0 63.928 54.111 115.937 120.622 115.937 29.728 0 57.762-10.334 79.606-28.841-15.296-25.695-24.050-55.43-24.050-87.095s8.754-61.4 24.050-87.095c-21.844-18.505-49.878-28.841-79.606-28.841-66.512 0-120.622 52.008-120.622 115.937zM232.113 238.472c-18.44 28.624-23.022 62.494-13.382 93.786 2.433-0.090 4.874-0.151 7.329-0.151 44.478 0 86.468 15.209 119.395 42.536 20.233-16.728 44.304-29.278 70.746-36.265-8.841-37.334-4.721-76.559 12.050-111.809-22.772-27.136-56.741-42.936-93.741-42.936-4.020 0-8.002 0.187-11.943 0.56-0.019 0-0.037 0-0.056 0.006-37.209 3.506-70.405 23.233-90.397 54.272zM464.662-4.006c-38.531 0-73.82 17.083-96.816 46.863-18.359 23.775-26.372 52.417-23.204 81.059 46.099 2.379 88.506 20.98 120.137 51.941 31.786-30.714 74.627-49.417 119.825-51.917 0.408-3.729 0.682-7.776 0.682-12.005-0.002-63.928-54.112-115.941-120.624-115.941zM700.235 243.423c-19.462-33.84-53.489-55.429-93.395-59.223-0.006 0-0.018 0-0.030 0-0.018 0-0.036 0-0.054-0.006-46.108-4.415-91.388 17.42-115.344 55.633-17.695 28.293-21.861 61.91-12.202 92.835 39.803 3.024 76.063 18.336 104.665 41.985 32.916-27.33 74.9-42.539 119.39-42.539 2.464 0 4.915 0.060 7.355 0.157 9.156-29.467 5.674-60.94-10.385-88.841zM703.265 392.104c-29.738 0-57.772 10.336-79.607 28.845 15.294 25.695 24.046 55.428 24.046 87.091s-8.752 61.396-24.046 87.091c21.835 18.507 49.869 28.845 79.601 28.845 66.512 0 120.627-52.009 120.627-115.937s-54.109-115.937-120.621-115.937z" />
<glyph unicode="&#xe908;" glyph-name="honey" horiz-adv-x="1088" d="M909.037 656.36v190.569l-190.669 113.071-160.665-95.288-160.664 95.288-190.672-113.071v-190.569l-160.664-95.288v-226.151l160.664-95.279v-190.573l190.664-113.069 160.672 95.283 160.665-95.283 190.662 113.069v190.573l160.672 95.279v226.151l-160.666 95.288zM849.037 811.338v-154.978l-130.662-77.497-130.671 77.497v154.986l130.665 77.489 130.669-77.497zM557.703 293.011l-130.664 77.5v154.977l130.664 77.498 130.662-77.498v-154.986l-130.662-77.492zM397.039 888.835l130.664-77.489v-154.986l-130.664-77.497-130.664 77.497v154.978l130.664 77.497zM105.703 370.503v154.986l130.672 77.498 130.664-77.498v-154.986l-130.664-77.492-130.672 77.492zM266.367 84.653v154.989l130.664 77.485 130.672-77.485v-154.989l-130.664-77.485-130.672 77.485zM718.368 7.168l-130.665 77.485v154.989l130.665 77.485 130.662-77.485v-154.989l-130.662-77.485zM1009.702 370.503l-130.662-77.492-130.662 77.492v154.986l130.662 77.498 130.662-77.498v-154.986z" />
<glyph unicode="&#xe909;" glyph-name="meat_food" horiz-adv-x="870" d="M826.624 807.319c-19.466 0-6.723 0.477-54.088-2.385 23.731 49.512 17.27 35.415 29.46 63.807 6.287 14.641-0.62 31.548-15.437 37.762-14.812 6.216-31.913-0.615-38.205-15.257l-27.94-65.062c-92.109 65.575-219.903 52.649-296.679-31.464 0 0-314.658-273.15-315.355-273.901-135.040-123.712-69.182-346.017 110.316-379.579v-41.047c0-107.453 240.885-143.119 373.16-85.919 48.031 20.772 74.481 51.287 74.481 85.919v95.647c0 60.042-74.414 92.027-134.927 104.371l205.517 179.551c82.196 71.902 97.142 183.657 50.929 269.956h38.769c16.092 0 29.138 12.893 29.138 28.799s-13.051 28.802-29.138 28.802zM94.837 358.595c0 90.228 74.265 163.633 165.546 163.633 112.153 0 192.141-108.608 157.481-214.049-46.723-2.396-90.306-11.551-124.691-26.419-45.994-19.891-72.181-48.717-74.321-81.541-71.24 18.268-124.016 82.33-124.016 158.377zM568.499 67.052c-68.477-29.619-183.453-29.635-251.967 0-27.33 11.817-39.564 25.165-39.564 33.147v17.546c86.58-46.51 244.509-46.52 331.094 0v-17.546c0-7.982-12.232-21.33-39.562-33.147zM608.061 195.84c0-7.982-12.232-21.33-39.562-33.147-68.479-29.614-183.455-29.629-251.969 0-27.331 11.817-39.564 25.165-39.564 33.147s12.234 21.33 39.564 33.147c68.477 29.614 183.453 29.629 251.969 0 27.331-11.817 39.562-25.165 39.562-33.147zM698.47 523.111c-1.777-1.525 22.656 19.729-215.579-188.406 14.158 129.466-87.485 242.796-218.518 245.073 213.327 185.13 199.894 173.326 201.693 175.327 31.497 35.082 76.085 55.096 123.834 55.096 91.279 0 165.545-73.405 165.545-163.633 0-47.318-20.767-92.318-56.975-123.457zM255.666 390.6c19.56 9.144 27.507 31.416 17.752 49.751-9.755 18.329-33.52 25.779-53.081 16.635-19.56-9.145-27.507-31.417-17.752-49.746s33.521-25.779 53.081-16.64zM232.862 255.785c13.358 6.246 18.784 21.453 12.123 33.971s-22.889 17.608-36.247 11.361c-13.358-6.241-18.785-21.453-12.123-33.971s22.889-17.603 36.247-11.361zM355.394 335.939c13.358 6.241 18.784 21.453 12.123 33.971s-22.889 17.603-36.247 11.361c-13.358-6.246-18.785-21.453-12.123-33.971s22.889-17.608 36.247-11.361zM651.612 613.987l-137.155-110.315c-12.482-10.039-14.367-28.179-4.211-40.516 10.119-12.298 28.469-14.233 40.988-4.162l137.155 110.315c12.483 10.039 14.367 28.179 4.214 40.516s-28.508 14.202-40.991 4.162zM372.185 221.655c-14.771-0.215-26.345-6.17-25.854-13.297 0.494-7.132 12.866-12.733 27.637-12.513 14.771 0.215 26.345 6.17 25.853 13.302-0.493 7.127-12.866 12.728-27.636 12.508zM497.34 166.564c21.628-0.456 38.887 7.27 38.544 17.249-0.338 9.979-18.145 18.437-39.774 18.893s-38.887-7.27-38.547-17.249c0.339-9.979 18.147-18.437 39.776-18.893z" />
<glyph unicode="&#xe90a;" glyph-name="novelty" d="M911.324 506.303c-14.258 10.48-31.967 23.571-34.292 32.243-2.53 9.477 6.505 30.356 13.812 47.1 12.487 28.751 25.419 58.504 11.083 83.319-14.499 25.136-47.062 28.79-78.505 32.323-17.944 2.008-40.273 4.497-46.935 11.203-6.71 6.665-9.198 28.991-11.204 46.94-3.536 31.44-7.192 63.964-32.322 78.5-21.847 12.688-54.206 1.606-83.317-11.082-16.107-6.987-32.888-13.652-47.14-13.813-8.675 2.288-21.724 20.035-32.246 34.291-18.107 24.572-38.626 52.438-68.26 52.438-29.594 0-50.151-27.866-68.261-52.4-10.519-14.254-23.571-32.003-35.857-34.732-10.802 0-27.426 7.228-43.526 14.214-29.191 12.688-61.594 23.65-83.277 11.082-25.176-14.536-28.83-47.060-32.364-78.5-1.967-17.948-4.497-40.234-11.163-46.94-6.706-6.707-29.030-9.194-46.94-11.203-31.48-3.533-64.045-7.228-78.54-32.323-14.335-24.775-1.406-54.529 11.083-83.319 7.308-16.744 16.382-37.623 13.853-47.1-2.329-8.673-20.078-21.764-34.292-32.244-24.612-18.109-52.477-38.666-52.477-68.298s27.866-50.193 52.44-68.301c14.253-10.48 31.961-23.571 34.291-32.245 2.53-9.475-6.505-30.353-13.813-47.098-12.489-28.75-25.417-58.507-11.082-83.317 14.494-25.136 47.060-28.792 78.5-32.322 17.949-2.012 40.273-4.5 46.94-11.204 6.706-6.668 9.194-28.991 11.203-46.941 3.533-31.443 7.188-63.964 32.323-78.499 21.764-12.649 54.126-1.608 83.319 11.083 16.102 6.981 32.563 14.053 47.139 13.812 8.673-2.289 21.723-20.040 32.244-34.292 18.109-24.576 38.628-52.441 68.261-52.441 29.594 0 50.151 27.865 68.22 52.399 10.519 14.258 23.571 32.003 35.856 34.732 10.842 0 27.467-7.228 43.526-14.21 29.232-12.734 61.597-23.697 83.281-11.125 25.172 14.535 28.829 47.062 32.364 78.541 1.964 17.95 4.494 40.231 11.162 46.941 6.704 6.704 29.027 9.192 46.941 11.204 31.479 3.53 64.042 7.222 78.535 32.322 14.378 24.775 1.446 54.525-11.077 83.317-7.313 16.745-16.348 37.581-13.818 47.098 2.331 8.674 20.082 21.765 34.292 32.245 24.618 18.109 52.483 38.668 52.483 68.301s-27.871 50.19-52.441 68.301zM887.549 402.105c-21.317-15.7-43.363-31.922-49.303-54.168-6.144-23.046 5.018-48.706 15.818-73.517 6.903-15.902 17.348-39.912 13.167-47.182-4.373-7.59-30.756-10.559-48.267-12.529-26.66-3.012-54.242-6.102-70.867-22.727s-19.715-44.213-22.685-70.873c-1.97-17.462-4.939-43.887-12.571-48.261-1.163-0.687-3.090-0.843-4.494-0.843-10.439 0-26.823 7.144-42.683 14.011-24.895 10.8-52.122 21.564-73.481 15.782-22.285-5.945-38.508-27.985-54.247-49.309-10.6-14.372-26.622-36.099-35.936-36.099s-25.378 21.721-35.937 36.099c-15.699 21.281-31.922 43.327-54.207 49.266-4.376 1.169-9.074 1.771-14.013 1.771-19.153 0-39.67-8.915-59.507-17.589-15.82-6.867-32.202-14.017-42.682-14.017-1.406 0-3.333 0.163-4.497 0.843-7.629 4.421-10.561 30.798-12.528 48.267-3.012 26.66-6.104 54.248-22.728 70.873-16.583 16.619-44.208 19.715-70.87 22.727-17.427 1.964-43.847 4.939-48.223 12.529-4.216 7.228 6.264 31.28 13.169 47.176 10.802 24.817 21.964 50.477 15.82 73.523-5.984 22.245-28.028 38.466-49.308 54.167-14.374 10.64-36.098 26.661-36.098 35.978s21.722 25.336 36.098 35.978c21.321 15.699 43.366 31.922 49.308 54.167 6.143 23.048-5.020 48.706-15.82 73.52-6.866 15.901-17.346 39.912-13.169 47.181 4.417 7.589 30.798 10.561 48.265 12.488 26.661 3.012 54.247 6.104 70.87 22.727s19.716 44.209 22.727 70.87c1.928 17.466 4.9 43.847 12.528 48.265 1.165 0.683 3.092 0.843 4.496 0.843 10.441 0 26.823-7.147 42.643-14.054 24.896-10.802 52.078-21.602 73.481-15.78 22.285 5.942 38.507 27.986 54.246 49.307 10.601 14.375 26.622 36.098 35.937 36.098s25.377-21.722 35.978-36.057c15.699-21.282 31.922-43.326 54.207-49.268 21.199-5.662 48.582 4.939 73.483 15.78 15.818 6.866 32.202 14.013 42.677 14.013 1.41 0 3.337-0.16 4.5-0.843 7.626-4.418 10.559-30.798 12.529-48.265 3.012-26.661 6.102-54.246 22.727-70.87 16.583-16.624 44.207-19.716 70.867-22.727 17.432-1.967 43.851-4.939 48.224-12.528 4.216-7.228-6.264-31.28-13.167-47.181-10.8-24.815-21.962-50.472-15.818-73.52 5.981-22.245 28.027-38.466 49.303-54.167 14.378-10.64 36.099-26.661 36.099-35.978s-21.727-25.34-36.063-35.899zM381.538 538.385c-11.083 0-20.078-8.995-20.078-20.077v-100.383l-84.322 112.429c-5.18 6.906-14.253 9.758-22.405 6.987-8.191-2.731-13.732-10.399-13.732-19.033v-160.613c0-11.083 8.995-20.076 20.077-20.076s20.078 8.993 20.078 20.076v100.383l84.322-112.43c3.855-5.138 9.878-8.029 16.061-8.029 2.129 0 4.256 0.319 6.345 1.042 8.191 2.735 13.732 10.403 13.732 19.034v160.613c0 11.082-8.995 20.077-20.077 20.077zM542.153 377.77h-60.23v120.46h60.23c11.082 0 20.077 8.995 20.077 20.077s-8.995 20.076-20.077 20.076h-80.308c-11.082 0-20.077-8.995-20.077-20.078v-160.613c0-11.080 8.995-20.079 20.077-20.079h80.308c11.082 0 20.077 8.999 20.077 20.079 0 11.083-8.995 20.078-20.077 20.078zM542.153 458.074h-80.308c-11.082 0-20.077-8.995-20.077-20.078s8.995-20.075 20.077-20.075h80.308c11.082 0 20.077 8.995 20.077 20.077s-8.995 20.076-20.077 20.076zM787.89 537.784c-10.842 2.69-21.685-3.815-24.335-14.615l-23.407-93.718-18.354 55.050c-5.457 16.383-32.605 16.383-38.105 0l-18.348-55.050-23.407 93.718c-2.693 10.802-13.776 17.347-24.335 14.615-10.758-2.69-17.264-13.572-14.613-24.333l40.153-160.611c2.168-8.638 9.794-14.86 18.709-15.179 10.077-0.404 17.022 5.259 19.835 13.691l21.082 63.324 21.082-63.324c2.771-8.228 10.439-13.734 19.070-13.734 0.241 0 0.518 0 0.723 0.042 8.915 0.319 16.541 6.505 18.709 15.179l40.153 160.611c2.686 10.761-3.819 21.644-14.613 24.333z" />
<glyph unicode="&#xe90b;" glyph-name="percent" d="M943.227 879.246c-16.63 16.65-43.609 16.65-60.239 0l-822.111-822.107c-16.642-16.637-16.642-43.595 0-60.232 8.317-8.329 19.224-12.486 30.123-12.486s21.804 4.157 30.115 12.486l822.112 822.108c16.637 16.635 16.637 43.595 0 60.23zM250.438 891.425c-111.568 0-202.347-90.785-202.347-202.354s90.778-202.346 202.347-202.346c111.576 0 202.347 90.785 202.347 202.354s-90.778 202.346-202.347 202.346zM250.438 571.929c-64.598 0-117.149 52.558-117.149 117.15s52.558 117.149 117.149 117.149c64.599 0 117.15-52.558 117.15-117.149s-52.551-117.15-117.15-117.15zM753.384 389.15c-111.568 0-202.346-90.778-202.346-202.345s90.778-202.349 202.346-202.349 202.349 90.774 202.349 202.349c0 111.574-90.781 202.345-202.349 202.345zM753.384 69.659c-64.601 0-117.149 52.559-117.149 117.152 0 64.587 52.555 117.148 117.149 117.148s117.152-52.561 117.152-117.148c0-64.594-52.552-117.152-117.152-117.152z" />
<glyph unicode="&#xe90c;" glyph-name="plus" horiz-adv-x="951" d="M0 521.143h950.857v-146.286h-950.857v146.286zM548.571 923.429v-950.857h-146.286v950.857h146.286z" />
<glyph unicode="&#xe90d;" glyph-name="seafood" horiz-adv-x="1088" d="M405.703 780c69.722 0 483.622 0 543.999 0 33.082 0 60 26.916 60 60s-26.918 60-60 60h-451.999c-16.568 0-30 13.432-30 30s13.432 30 30 30h451.999c66.17 0 120-53.832 120-120s-53.83-120-120-120h-61.395c-1.875-20.446-5.658-40.514-11.277-60h102.675c16.563 0 29.997-13.432 29.997-30s-13.434-30-29.997-30h-126.726c-54.534-104.394-166.029-180-297.276-180h-125.072c-46.83 0-84.928-38.098-84.928-84.928 0-51.565 18.458-64.186 186.526-163.405 19.352-11.424 40.442-23.878 63.434-37.555 20.098 59.174 76.157 101.888 142.039 101.888h60c16.57 0 30.003-13.434 30.003-29.997 0-49.018-23.642-92.614-60.109-120 36.467-27.392 60.109-70.989 60.109-120 0-16.57-13.434-30.003-30.003-30.003h-60c-72.429 0-133.029 51.642-146.975 120.013-2.912 0-5.842 0-8.796 0-154.22 0-337.332 6.598-446.608 115.731-59.468 59.386-89.62 142.912-89.62 248.256 0 198.8 161.852 360 360 360zM828 720h-302.297c-66.168 0-120-53.832-120-120s53.832-120 120-120h30c140.796 0 257.103 105.188 272.297 240zM395.631 475.702c-30.915 32.336-49.928 76.138-49.928 124.298 0 45.894 17.274 87.822 45.65 119.65-123.444-5.844-227.588-86.64-267.834-197.788 29.928-62.22 92.429-101.862 162.184-101.862 9.86 0 19.688 0.81 29.35 2.39 19.704 26.019 47.974 45.194 80.579 53.312zM356.439 210.317c-18.914-24.736-42.382-45.459-68.936-61.12 67.556-23.232 146.004-30.278 219.588-32.365-1.786 1.050-3.604 2.125-5.364 3.162-67.066 39.597-113.308 66.899-145.288 90.323zM762.56 176h-24.858c-39.11 0-72.48-25.075-84.858-60h24.858c39.11 0 72.48 25.075 84.858 60zM737.702-4h24.858c-12.378 34.925-45.747 60.038-84.858 60.038h-24.858c12.378-34.918 45.747-60.038 84.858-60.038zM177.719 214.195c11.68-11.667 24.61-21.933 38.534-30.995 38.51 11.251 72.257 35.219 95.718 67.878-18.602 23.571-26.268 49.107-26.268 83.994 0 8.514 0.78 16.844 2.196 24.96-71.108-0.616-136.44 29.516-181.496 80.222-0.45-6.696-0.7-13.446-0.7-20.254 0-90.088 23.556-157.408 72.016-205.805z" />
<glyph unicode="&#xe90e;" glyph-name="snowfake" horiz-adv-x="910" d="M884.81 256.774l-66.89 38.622 27.546 7.378c4.693 1.257 8.687 4.324 11.116 8.533 2.429 4.204 3.089 9.199 1.826 13.892l-18.955 70.737c-2.617 9.766-12.658 15.563-22.42 12.946l-133.655-35.812-35.897 20.725v81.22l35.897 20.725 133.655-35.812c9.762-2.619 19.803 3.18 22.42 12.946l18.955 70.74c1.263 4.69 0.603 9.689-1.826 13.893s-6.428 7.274-11.116 8.53l-27.546 7.38 66.89 38.618c4.204 2.428 7.276 6.427 8.533 11.117s0.597 9.689-1.832 13.893l-36.619 63.423c-5.052 8.757-16.247 11.756-25.008 6.701l-66.89-38.618 7.378 27.543c2.623 9.766-3.174 19.806-12.942 22.423l-70.741 18.955c-4.688 1.256-9.682 0.6-13.892-1.829-4.204-2.428-7.276-6.427-8.528-11.117l-35.812-133.65-35.903-20.727-70.333 40.607v41.451l97.839 97.84c3.436 3.433 5.365 8.091 5.365 12.946s-1.929 9.514-5.365 12.946l-51.785 51.784c-7.151 7.15-18.74 7.15-25.894 0l-20.16-20.16v77.237c0 10.112-8.199 18.309-18.309 18.309h-73.235c-10.112 0-18.309-8.197-18.309-18.309v-77.237l-20.162 20.161c-3.433 3.433-8.090 5.363-12.946 5.363s-9.514-1.93-12.946-5.363l-51.785-51.784c-7.149-7.149-7.149-18.743 0-25.892l97.839-97.84v-41.453l-70.335-40.609-35.898 20.727-35.812 133.652c-2.618 9.766-12.653 15.566-22.424 12.946l-70.74-18.955c-4.69-1.258-8.689-4.324-11.117-8.53s-3.087-9.202-1.829-13.893l7.38-27.542-66.889 38.617c-8.753 5.055-19.953 2.056-25.010-6.701l-36.617-63.423c-2.428-4.206-3.087-9.202-1.829-13.893s4.325-8.689 8.53-11.117l66.891-38.62-27.542-7.38c-9.766-2.616-15.563-12.657-12.946-22.424l18.955-70.738c1.258-4.69 4.324-8.689 8.53-11.117 4.208-2.427 9.202-3.087 13.893-1.829l133.65 35.812 35.898-20.726v-81.216l-35.898-20.727-133.65 35.814c-4.693 1.257-9.691 0.598-13.893-1.83-4.206-2.427-7.274-6.426-8.53-11.117l-18.955-70.74c-2.618-9.768 3.178-19.803 12.946-22.42l27.542-7.384-66.891-38.622c-4.206-2.423-7.274-6.423-8.53-11.116-1.258-4.688-0.599-9.688 1.829-13.892l36.617-63.42c5.055-8.761 16.253-11.759 25.010-6.702l66.891 38.616-7.381-27.54c-1.258-4.693-0.598-9.688 1.83-13.892s6.426-7.276 11.117-8.533l70.74-18.955c9.764-2.617 19.806 3.18 22.424 12.948l35.812 133.655 35.898 20.725 70.333-40.607v-41.455l-97.839-97.838c-7.149-7.151-7.149-18.745 0-25.89l51.785-51.786c3.433-3.436 8.091-5.365 12.946-5.365s9.513 1.929 12.946 5.365l20.162 20.161v-77.238c0-10.115 8.197-18.313 18.309-18.313h73.235c10.11 0 18.309 8.198 18.309 18.313v77.238l20.161-20.161c7.149-7.157 18.739-7.157 25.894 0l51.789 51.78c3.43 3.436 5.359 8.090 5.359 12.948 0 4.853-1.929 9.512-5.359 12.948l-97.844 97.838v41.455l70.333 40.607 35.903-20.725 35.812-133.655c1.257-4.688 4.324-8.687 8.528-11.116s9.199-3.083 13.892-1.826l70.741 18.955c9.768 2.611 15.565 12.652 12.942 22.42l-7.378 27.546 66.89-38.622c8.761-5.057 19.957-2.054 25.008 6.702l36.619 63.425c2.429 4.204 3.089 9.199 1.832 13.892-1.257 4.688-4.329 8.687-8.533 11.11zM832.336 202.507l-89.31 51.564c-6.411 3.703-14.421 3.18-20.298-1.331-5.877-4.506-8.459-12.106-6.542-19.263l14.080-52.548-35.368-9.478-33.035 123.29c-1.257 4.693-4.324 8.687-8.528 11.116l-51.621 29.804c-5.666 3.271-12.646 3.271-18.313 0l-88.643-51.177c-5.665-3.271-9.155-9.313-9.155-15.855v-59.608c0-4.853 1.93-9.512 5.362-12.948l90.256-90.254-25.893-25.89-38.471 38.468c-5.234 5.239-13.111 6.804-19.953 3.971-6.84-2.833-11.302-9.512-11.302-16.919v-103.128h-36.618v103.134c0 7.401-4.462 14.080-11.302 16.913-6.842 2.833-14.719 1.269-19.953-3.971l-38.47-38.468-25.892 25.89 90.255 90.254c3.433 3.436 5.362 8.095 5.362 12.948v59.608c0 6.542-3.49 12.584-9.154 15.855l-88.644 51.177c-5.665 3.271-12.644 3.271-18.309 0l-51.62-29.804c-4.206-2.429-7.274-6.423-8.53-11.116l-33.037-123.29-35.369 9.478 14.082 52.548c1.917 7.157-0.665 14.757-6.54 19.263-5.874 4.511-13.887 5.035-20.299 1.331l-89.316-51.564-18.309 31.71 89.314 51.57c6.413 3.703 9.964 10.906 8.999 18.244-0.967 7.344-6.26 13.38-13.413 15.297l-52.552 14.080 9.477 35.368 123.29-33.035c4.69-1.263 9.689-0.597 13.892 1.826l51.62 29.804c5.665 3.271 9.155 9.313 9.155 15.855v102.358c0 6.542-3.49 12.586-9.155 15.856l-51.62 29.803c-4.204 2.427-9.198 3.085-13.892 1.829l-123.29-33.037-9.477 35.369 52.552 14.081c7.153 1.917 12.446 7.953 13.413 15.295s-2.586 14.543-8.999 18.245l-89.314 51.57 18.309 31.711 89.314-51.565c6.41-3.7 14.424-3.178 20.299 1.331 5.875 4.507 8.457 12.111 6.54 19.264l-14.081 52.552 35.369 9.477 33.036-123.291c1.258-4.69 4.325-8.689 8.53-11.117l51.619-29.803c5.665-3.27 12.644-3.27 18.309 0l88.645 51.178c5.664 3.269 9.154 9.313 9.154 15.855v59.606c0 4.855-1.93 9.514-5.362 12.946l-90.255 90.255 25.892 25.892 38.47-38.471c5.234-5.236 13.111-6.805 19.953-3.969 6.841 2.834 11.302 9.51 11.302 16.915v103.131h36.618v-103.131c0-7.404 4.462-14.081 11.302-16.915 6.842-2.834 14.718-1.267 19.953 3.969l38.471 38.471 25.893-25.892-90.256-90.256c-3.433-3.433-5.362-8.091-5.362-12.946v-59.606c0-6.542 3.49-12.586 9.155-15.856l88.643-51.178c5.666-3.272 12.646-3.27 18.307 0l51.627 29.803c4.204 2.428 7.27 6.427 8.528 11.117l33.035 123.291 35.368-9.477-14.080-52.553c-1.917-7.153 0.666-14.755 6.537-19.263 5.882-4.509 13.887-5.031 20.304-1.331l89.31 51.565 18.313-31.711-89.316-51.565c-6.411-3.702-9.961-10.904-8.994-18.245 0.961-7.342 6.258-13.378 13.409-15.295l52.554-14.082-9.478-35.368-123.295 33.036c-4.688 1.26-9.682 0.601-13.892-1.829l-51.621-29.803c-5.66-3.27-9.153-9.314-9.153-15.856v-102.356c0-6.542 3.493-12.584 9.153-15.855l51.621-29.804c4.21-2.429 9.21-3.083 13.892-1.832l123.295 33.041 9.478-35.374-52.554-14.080c-7.151-1.917-12.447-7.953-13.409-15.292-0.967-7.344 2.583-14.546 8.994-18.244l89.316-51.57-18.313-31.716z" />
<glyph unicode="&#xe90f;" glyph-name="vegetables" horiz-adv-x="1088" d="M1033.792 576.182c-17.824 23.631-41.35 42.773-67.904 55.56 1.427 9.298 2.144 18.721 2.144 28.195 0 102.052-83.021 185.077-185.075 185.077-17.088 0-34.157-2.405-50.566-7.063-10.637 29.33-28.634 55.758-52.518 76.565-33.658 29.33-76.812 45.485-121.506 45.485s-87.848-16.153-121.511-45.485c-23.881-20.809-41.88-47.233-52.514-76.563-16.413 4.658-33.478 7.063-50.568 7.063-102.052 0-185.077-83.025-185.077-185.077 0-9.476 0.719-18.897 2.145-28.195-26.55-12.787-50.079-31.929-67.904-55.56-24.357-32.294-37.234-70.792-37.234-111.338 0-102.052 83.025-185.076 185.077-185.076 24.518 0 48.717 4.96 71.128 14.285l63.522-102.266c24.696-39.757 37.753-85.517 37.753-132.32v-123.469h310.372v123.469c0 46.803 13.050 92.563 37.747 132.32l63.52 102.266c22.413-9.325 46.611-14.285 71.13-14.285 102.054 0 185.082 83.024 185.082 185.076-0.006 40.546-12.883 79.044-37.242 111.336zM700.269 223.494c-30.618-49.286-46.797-106.003-46.797-164.019v-63.392h-190.213v63.392c0 58.016-16.183 114.733-46.796 164.019l-63.576 102.349c17.138 15.092 31.348 33.219 41.87 53.299 9.947-7.047 20.532-13.357 31.599-18.982l132.011-254.829 132.008 254.828c11.066 5.625 21.651 11.935 31.603 18.982 10.522-20.080 24.73-38.209 41.869-53.299l-63.578-102.348zM507.713 333.716c16.469-2.746 33.409-4.205 50.653-4.205s34.182 1.462 50.653 4.205l-50.653-97.78-50.653 97.78zM885.952 339.848c-58.554 0-108.627 39.805-121.76 96.797l-12.608 54.679-38.515-40.807c-36-38.151-93.836-60.927-154.703-60.927s-118.701 22.776-154.706 60.927l-38.514 40.807-12.604-54.679c-13.139-56.991-63.208-96.797-121.762-96.797-68.925 0-125 56.072-125 124.998 0 54.662 36.518 103.868 88.803 119.658l29.11 8.792-9.144 28.997c-3.83 12.148-5.773 24.814-5.773 37.643 0 68.925 56.075 125 125 125 20.2 0 39.516-4.702 57.402-13.974l37.421-19.396 6.122 41.702c8.927 60.803 62.084 106.654 123.646 106.654s114.716-45.851 123.644-106.654l6.125-41.702 37.421 19.396c17.888 9.272 37.203 13.974 57.402 13.974 68.922 0 124.998-56.074 124.998-125 0-12.829-1.939-25.493-5.773-37.643l-9.146-28.997 29.114-8.792c52.282-15.79 88.8-64.996 88.8-119.658 0-68.925-56.077-124.998-124.998-124.998z" />
<glyph unicode="&#xe910;" glyph-name="Arrow-7" horiz-adv-x="1792" d="M18.745 493.255c-24.994-24.994-24.994-65.516 0-90.51l407.293-407.295c24.994-24.992 65.516-24.992 90.51 0 24.993 24.998 24.993 65.517 0 90.509l-362.039 362.042 362.039 362.038c24.993 24.994 24.993 65.516 0 90.51s-65.516 24.994-90.51 0l-407.293-407.293zM1792 512h-1728v-128h1728v128z" />
<glyph unicode="&#xe911;" glyph-name="Vector" d="M431.158 97.684c95.662 0.022 188.567 32.046 263.923 90.974l236.921-236.921 76.207 76.207-236.921 236.921c58.961 75.361 91.007 168.29 91.028 263.976 0 237.73-193.428 431.158-431.158 431.158s-431.158-193.428-431.158-431.158c0-237.73 193.428-431.158 431.158-431.158zM431.158 852.211c178.338 0 323.368-145.031 323.368-323.368s-145.031-323.368-323.368-323.368c-178.338 0-323.368 145.031-323.368 323.368s145.031 323.368 323.368 323.368z" />
<glyph unicode="&#xe912;" glyph-name="burger" horiz-adv-x="1317" d="M0 960h1316.571v-243.81h-1316.571v243.81zM0 569.905h1316.571v-243.81h-1316.571v243.81zM0 179.81h1316.571v-243.81h-1316.571v243.81z" />
<glyph unicode="&#xe913;" glyph-name="arrow-drop-down" horiz-adv-x="1365" d="M682.667-64l-591.207 896h1182.413l-591.206-896z" />
</font>
</defs>
</svg>
