<svg width="16" height="17" viewBox="0 0 16 17" fill="none" xmlns="http://www.w3.org/2000/svg">
<path fill-rule="evenodd" clip-rule="evenodd" d="M9.41425 8.15982L15.3643 14.499C15.7543 14.9145 15.7543 15.5889 15.3643 16.0054C14.9733 16.421 14.3403 16.421 13.9502 16.0054L8.00025 9.6663L2.05025 16.0054C1.66025 16.421 1.02725 16.421 0.63625 16.0054C0.24625 15.5889 0.24625 14.9145 0.63625 14.499L6.58625 8.15982L0.63625 1.82067C0.24625 1.40517 0.24625 0.730766 0.63625 0.314194C1.02725 -0.101313 1.66025 -0.101313 2.05025 0.314194L8.00025 6.65334L13.9502 0.314194C14.3403 -0.101313 14.9733 -0.101313 15.3643 0.314194C15.7543 0.730766 15.7543 1.40517 15.3643 1.82067L9.41425 8.15982Z" fill="#242424"/>
</svg>
