<svg width="17" height="16" viewBox="0 0 17 16" fill="none" xmlns="http://www.w3.org/2000/svg">
<path d="M6.33911 2.8125C7.42852 2.8125 13.8957 2.8125 14.8391 2.8125C15.356 2.8125 15.7766 2.39194 15.7766 1.875C15.7766 1.35806 15.356 0.9375 14.8391 0.9375H7.77661C7.51774 0.9375 7.30786 0.727625 7.30786 0.46875C7.30786 0.209875 7.51774 0 7.77661 0H14.8391C15.873 0 16.7141 0.841125 16.7141 1.875C16.7141 2.90887 15.873 3.75 14.8391 3.75H13.8798C13.8505 4.06947 13.7914 4.38303 13.7036 4.6875H15.3079C15.5667 4.6875 15.7766 4.89738 15.7766 5.15625C15.7766 5.41512 15.5667 5.625 15.3079 5.625H13.3278C12.4757 7.25616 10.7336 8.4375 8.68286 8.4375H6.72861C5.99689 8.4375 5.40161 9.03278 5.40161 9.7645C5.40161 10.5702 5.69002 10.7674 8.31608 12.3177C8.61845 12.4962 8.94799 12.6908 9.30724 12.9045C9.62127 11.9799 10.4972 11.3125 11.5266 11.3125H12.4641C12.723 11.3125 12.9329 11.5224 12.9329 11.7812C12.9329 12.5471 12.5635 13.2283 11.9937 13.6562C12.5635 14.0842 12.9329 14.7654 12.9329 15.5312C12.9329 15.7901 12.723 16 12.4641 16H11.5266C10.3949 16 9.44802 15.1931 9.23011 14.1248C9.18461 14.1248 9.13883 14.1248 9.09267 14.1248C6.68299 14.1248 3.82186 14.0217 2.11442 12.3165C1.18524 11.3886 0.714111 10.0835 0.714111 8.4375C0.714111 5.33125 3.24305 2.8125 6.33911 2.8125ZM12.9375 3.75H8.21411C7.18024 3.75 6.33911 4.59113 6.33911 5.625C6.33911 6.65887 7.18024 7.5 8.21411 7.5H8.68286C10.8828 7.5 12.7001 5.85644 12.9375 3.75ZM6.18174 7.56716C5.6987 7.06191 5.40161 6.3775 5.40161 5.625C5.40161 4.90791 5.67152 4.25278 6.11489 3.75547C4.18608 3.84678 2.55883 5.10922 1.92999 6.84591C2.39761 7.81809 3.3742 8.4375 4.46411 8.4375C4.61817 8.4375 4.77174 8.42484 4.9227 8.40016C5.23058 7.99362 5.6723 7.694 6.18174 7.56716ZM5.56936 11.7138C5.27383 12.1003 4.90714 12.4241 4.49224 12.6688C5.5478 13.0318 6.77355 13.1419 7.9233 13.1745C7.89539 13.1581 7.86699 13.1413 7.83949 13.1251C6.79158 12.5064 6.06905 12.0798 5.56936 11.7138ZM11.915 12.25H11.5266C10.9155 12.25 10.3941 12.6418 10.2007 13.1875H10.5891C11.2002 13.1875 11.7216 12.7957 11.915 12.25ZM11.5266 15.0625H11.915C11.7216 14.5168 11.2002 14.1244 10.5891 14.1244H10.2007C10.3941 14.67 10.9155 15.0625 11.5266 15.0625ZM2.77686 11.6532C2.95936 11.8355 3.16139 11.9959 3.37895 12.1375C3.98067 11.9617 4.50796 11.5872 4.87455 11.0769C4.58389 10.7086 4.46411 10.3096 4.46411 9.7645C4.46411 9.63147 4.4763 9.50131 4.49842 9.3745C3.38736 9.38413 2.36655 8.91331 1.66255 8.12103C1.65552 8.22566 1.65161 8.33113 1.65161 8.4375C1.65161 9.84513 2.01967 10.897 2.77686 11.6532Z" fill="#D5AF86"/>
</svg>
